# xmcd
#
# Track frame offsets:
#	150
#	11872
#	25272
#	41408
#	59668
#	78216
#	95251
#	112159
#	127161
#	143497
#	156674
#	174037
#	187414
#	205962
#	223755
#	241179
#	257281
#	275217
#	288710
#	307835
#	321267
#	338754
#
# Disc length: 4716 seconds
#
# Revision: 1
# Processed by: cddbd v1.4PL0 Copyright (c) Steve Scherf et al.
# Submitted via: audiograbber 1.80
#
DISCID=4d126a16
DTITLE=Various Artist - Hott Country 047
DYEAR=1900
DGENRE=
TTITLE0=Brooks and Dunn - Beer Thirty
TTITLE1=Tracy Lawrence - Lessons Learned
TTITLE2=Mullins-Black - You Didn't Did Ya
TTITLE3=Mark Wills - Back At One
TTITLE4=George Jones - The Cold Hard Truth
TTITLE5=Prairie Oyster - One Of These Nights
TTITLE6=Kenny Rogers - Buy Me A Rose
TTITLE7=Jerry Kilgore - Love Trip
TTITLE8=Tyler England - Too Many Highways
TTITLE9=Shane Minor - Ordinary Love
TTITLE10=Lee Ann Womack - Don't Tell Me
TTITLE11=George Strait - What Do You Say To That
TTITLE12=Bryan White - God Gave Me that
TTITLE13=Chad Brock - A Country Boy Can Survive
TTITLE14=Phil Vassar - Carlene
TTITLE15=Keith Harding - Bring It On
TTITLE16=Alabama - Small Stuff
TTITLE17=Toby Keith - When Love Fades
TTITLE18=Montgomery Gentry - Daddy Won't Sell The Farm
TTITLE19=Bruce Robison - The Good Life
TTITLE20=T. Graham Brown - Memphis Women And Chicken
TTITLE21=SHeDAISY - This Woman Needs
EXTD=
EXTT0=
EXTT1=
EXTT2=
EXTT3=
EXTT4=
EXTT5=
EXTT6=
EXTT7=
EXTT8=
EXTT9=
EXTT10=
EXTT11=
EXTT12=
EXTT13=
EXTT14=
EXTT15=
EXTT16=
EXTT17=
EXTT18=
EXTT19=
EXTT20=
EXTT21=
PLAYORDER=
